<?xml version="1.0" standalone="no"?>
<!DOCTYPE svg PUBLIC "-//W3C//DTD SVG 1.1//EN" "http://www.w3.org/Graphics/SVG/1.1/DTD/svg11.dtd" >
<svg xmlns="http://www.w3.org/2000/svg">
<metadata>Generated by IcoMoon</metadata>
<defs>
<font id="store-thelia" horiz-adv-x="1024">
<font-face units-per-em="1024" ascent="960" descent="-64" />
<missing-glyph horiz-adv-x="1024" />
<glyph unicode="&#x20;" horiz-adv-x="512" d="" />
<glyph unicode="&#xe900;" glyph-name="administration" horiz-adv-x="774" d="M774.423 960h-774.423v-55.054h55.054v-440.43h660.645v440.43h55.054v55.054zM495.484 673.72h-220.215v110.108h220.215v-110.108zM774.423 431.484h-774.423v-55.054h55.054v-440.43h660.645v440.43h55.054v55.054zM495.484 145.204h-220.215v113.778h220.215v-113.778z" />
<glyph unicode="&#xe901;" glyph-name="affiliation" horiz-adv-x="1294" d="M580.571 246.857c0-36.571-32-68.571-68.571-68.571s-68.571 32-68.571 68.571c0 36.571 32 68.571 68.571 68.571s68.571-27.429 68.571-68.571v0zM832 246.857c0-36.571-32-68.571-68.571-68.571s-68.571 32-68.571 68.571c0 36.571 32 68.571 68.571 68.571s68.571-27.429 68.571-68.571v0zM182.857 854.857l50.286-32 164.571-429.714c4.571-13.714 18.286-22.857 32-22.857h411.429c13.714 0 27.429 9.143 32 22.857l137.143 356.571c4.571 9.143 4.571 18.286-4.571 27.429-4.571 9.143-18.286 13.714-27.429 13.714h-608l-36.571 91.429c-4.571 13.714-13.714 22.857-22.857 27.429l-64 41.143c-27.429 18.286-64 9.143-82.286-18.286-13.714-27.429-9.143-64 18.286-77.714v0zM1270.857 54.857h-68.571v635.429c0 27.429-22.857 50.286-50.286 50.286h-64l-27.429-86.857h54.857v-566.857h-941.714v566.857h45.714l-32 86.857h-50.286c-27.429 0-50.286-22.857-50.286-50.286v-635.429h-64c-13.714 0-22.857-9.143-22.857-22.857 0-54.857 41.143-96 96-96h772.571v41.143c0 13.714 13.714 27.429 27.429 27.429s27.429-13.714 27.429-27.429v-41.143h45.714v41.143c0 13.714 13.714 27.429 27.429 27.429s27.429-13.714 27.429-27.429v-41.143h178.286c54.857 0 96 41.143 96 96-4.571 13.714-13.714 22.857-27.429 22.857z" />
<glyph unicode="&#xe902;" glyph-name="all" horiz-adv-x="1073" d="M585.143 923.429l89.397-280.381c8.127-20.317 28.444-36.571 48.762-36.571h296.635c48.762 0 69.079-65.016 28.444-93.46l-235.683-170.667c-16.254-12.19-24.381-36.571-20.317-56.889l89.397-280.381c16.254-48.762-40.635-89.397-81.27-56.889l-239.746 174.73c-16.254 12.19-44.698 12.19-60.952 0l-231.619-178.794c-40.635-28.444-93.46 12.19-81.27 56.889l89.397 280.381c8.127 20.317 0 44.698-20.317 56.889l-235.683 174.73c-40.635 28.444-20.317 93.46 28.444 93.46h296.635c24.381 0 40.635 16.254 48.762 36.571l93.46 280.381c16.254 48.762 81.27 48.762 97.524 0z" />
<glyph unicode="&#xe903;" glyph-name="autre" d="M275.692 618.667c0 39.385 30.632 74.393 74.393 74.393 39.385 0 74.393-30.632 74.393-74.393 0-39.385-30.632-74.393-74.393-74.393-39.385 0-74.393 35.009-74.393 74.393v0zM608.274 618.667c0 39.385 30.632 74.393 74.393 74.393 39.385 0 74.393-30.632 74.393-74.393 0-39.385-30.632-74.393-74.393-74.393-39.385 0-74.393 35.009-74.393 74.393v0zM783.316 316.718c-43.761-105.026-153.162-170.667-271.316-170.667-122.53 0-227.556 70.017-271.316 175.043-8.752 17.504 0 39.385 17.504 48.137 4.376 0 8.752 4.376 13.128 4.376 13.128 0 26.256-8.752 30.632-21.88 30.632-78.769 113.778-131.282 205.675-131.282s170.667 52.513 205.675 131.282c8.752 17.504 30.632 26.256 48.137 17.504 21.88-13.128 30.632-35.009 21.88-52.513v0zM406.974 960c-223.179 0-406.974-183.795-406.974-406.974v-503.248c0-61.265 52.513-113.778 113.778-113.778h892.718c8.752 0 17.504 8.752 17.504 17.504v892.718c0 61.265-52.513 113.778-113.778 113.778h-503.248z" />
<glyph unicode="&#xe904;" glyph-name="fiche-produit" horiz-adv-x="720" d="M530.551 696.58h189.217l-226.319 263.42v-226.319c0-22.261 18.551-37.101 37.101-37.101v0zM530.551 655.768c-40.812 0-74.203 33.391-74.203 74.203v230.029h-382.145c-40.812 0-74.203-33.391-74.203-74.203v-871.884c0-40.812 33.391-74.203 74.203-74.203h567.652c40.812 0 74.203 33.391 74.203 74.203v641.855h-185.507zM133.565 807.884h215.188c11.13 0 18.551-7.42 18.551-18.551v-178.087c0-11.13-7.42-18.551-18.551-18.551h-215.188c-11.13 0-18.551 7.42-18.551 18.551v178.087c0 11.13 7.42 18.551 18.551 18.551zM604.754 80.696h-267.13v85.333h267.13v-85.333zM604.754 247.652h-489.739v37.101h493.449v-37.101zM604.754 358.957h-489.739v37.101h493.449v-37.101zM604.754 473.971h-489.739v37.101h493.449v-37.101z" />
<glyph unicode="&#xe905;" glyph-name="module" horiz-adv-x="1084" d="M1083.943 244.88c0-35.126-9.545-64.525-29.017-87.815s-46.198-35.126-80.561-35.126c-17.945 0-34.744 3.818-50.398 11.454-16.036 7.636-28.635 16.036-38.562 24.817s-22.145 17.181-36.653 24.817c-14.89 7.636-30.163 11.454-46.198 11.454-47.726 0-71.779-27.108-71.779-80.943 0-16.799 3.436-41.999 10.309-74.834s10.309-58.034 9.927-74.834v-3.436c-9.545 0-16.799-0.382-21.381-0.764-14.89-1.145-35.89-3.818-63.38-7.636s-52.689-6.491-75.216-8.782c-22.526-2.291-43.908-3.436-63.761-3.436-26.345 0-48.871 5.727-67.198 17.181s-27.49 29.781-27.49 54.216c0 16.036 3.818 31.308 11.454 46.198s16.036 27.108 24.817 36.653c8.782 9.927 17.181 22.526 24.817 38.562s11.454 32.835 11.454 50.398c0 34.362-11.836 61.089-35.126 80.561s-52.689 29.017-87.815 29.017c-36.653 0-67.579-9.927-93.16-29.781s-38.562-47.344-38.562-83.233c0-18.708 3.436-36.653 9.927-54.216s13.745-31.308 21.763-41.999c8.018-10.691 15.272-22.145 21.763-34.362s9.927-23.29 9.927-32.835c0-19.472-9.927-38.944-29.781-58.034-16.036-15.272-41.617-22.908-76.361-22.908-41.235 0-94.306 5.345-159.594 15.654-3.818 0.764-9.927 1.909-17.945 2.673s-14.127 1.909-17.945 2.673l-8.4 1.145c-0.382 0-1.145 0.382-1.909 0.764-0.764 0-1.145 0.382-1.145 0.764v667.394c0.764-0.382 4.582-1.145 11.454-2.291s14.127-2.291 22.145-3.436c8.018-1.145 12.6-1.909 14.127-2.291 65.289-10.309 118.359-15.654 159.594-15.654 34.744 0 60.325 7.636 76.361 22.908 19.854 19.090 29.781 38.562 29.781 58.034 0 9.545-3.436 20.617-9.927 32.835s-13.745 24.054-21.763 34.362c-8.018 10.691-15.272 24.817-21.763 41.999s-9.927 35.508-9.927 54.216c0 35.508 12.981 63.38 38.562 83.233 24.817 19.854 56.125 29.781 93.16 29.781 34.744 0 63.761-9.545 87.433-29.017 23.29-19.472 35.126-46.198 35.126-80.561 0-17.945-3.818-34.744-11.454-50.398-7.636-16.036-16.036-28.635-24.817-38.562s-17.181-22.145-24.817-36.653c-7.636-14.89-11.454-30.163-11.454-46.198 0-24.817 9.163-42.762 27.49-54.216s40.471-17.181 67.198-17.181c27.872 0 66.816 3.436 117.214 9.927s85.906 10.309 106.142 11.072v-1.145c-0.382-0.764-1.145-4.582-2.291-11.454s-2.291-14.127-3.436-22.145c-1.145-8.018-1.909-12.6-2.291-14.127-10.309-65.289-15.654-118.359-15.654-159.594 0-34.744 7.636-60.325 22.908-76.361 19.090-19.854 38.562-29.781 58.034-29.781 9.545 0 20.617 3.436 32.835 9.927s24.054 13.745 34.362 21.763c10.691 8.018 24.817 15.272 41.999 21.763s35.508 9.927 54.216 9.927c35.508 0 63.38-12.981 83.233-38.562 19.472-26.345 29.399-57.271 29.399-93.542z" />
<glyph unicode="&#xe906;" glyph-name="paiement" horiz-adv-x="1238" d="M181.527 629.527h921.6l-74.473 293.236c-9.309 27.927-37.236 46.545-65.164 37.236l-921.6-232.727c-27.927-4.655-46.545-37.236-41.891-65.164l125.673-507.345v418.909c4.655 32.582 27.927 55.855 55.855 55.855zM1186.909 550.4c13.964 0 27.927-13.964 27.927-27.927v-535.273c0-13.964-13.964-27.927-27.927-27.927h-954.182c-13.964 0-27.927 13.964-27.927 27.927v535.273c0 13.964 13.964 27.927 27.927 27.927h954.182zM1186.909 573.673h-954.182c-27.927 0-51.2-23.273-51.2-51.2v-535.273c0-27.927 23.273-51.2 51.2-51.2h954.182c27.927 0 51.2 23.273 51.2 51.2v535.273c0 27.927-23.273 51.2-51.2 51.2v0zM200.145 471.273h1024v-148.945h-1024v148.945zM502.691 66.327c0-20.565-16.671-37.236-37.236-37.236s-37.236 16.671-37.236 37.236c0 20.565 16.671 37.236 37.236 37.236s37.236-16.671 37.236-37.236zM619.055 66.327c0-20.565-16.671-37.236-37.236-37.236s-37.236 16.671-37.236 37.236c0 20.565 16.671 37.236 37.236 37.236s37.236-16.671 37.236-37.236zM730.764 66.327c0-20.565-16.671-37.236-37.236-37.236s-37.236 16.671-37.236 37.236c0 20.565 16.671 37.236 37.236 37.236s37.236-16.671 37.236-37.236zM902.982 66.327c0-20.565-16.671-37.236-37.236-37.236s-37.236 16.671-37.236 37.236c0 20.565 16.671 37.236 37.236 37.236s37.236-16.671 37.236-37.236zM1019.345 66.327c0-20.565-16.671-37.236-37.236-37.236s-37.236 16.671-37.236 37.236c0 20.565 16.671 37.236 37.236 37.236s37.236-16.671 37.236-37.236zM1135.709 66.327c0-20.565-16.671-37.236-37.236-37.236s-37.236 16.671-37.236 37.236c0 20.565 16.671 37.236 37.236 37.236s37.236-16.671 37.236-37.236z" />
<glyph unicode="&#xe907;" glyph-name="partenaire" horiz-adv-x="661" d="M622.74 702.842c-10.194 9.267-22.241 19.461-24.557 27.801-2.78 8.804 0.463 24.094 3.707 38.458 5.097 23.167 10.657 49.115-3.707 69.039s-41.238 22.704-64.869 25.021c-14.364 1.39-30.118 3.243-37.531 8.34-6.95 5.097-13.437 19.924-18.997 32.434-9.73 21.777-20.387 46.798-44.018 54.212-4.17 1.39-8.804 2.317-13.9 2.317-18.071 0-35.214-10.194-51.895-19.924-13.437-7.877-26.874-15.754-36.141-15.754s-23.167 7.877-36.141 15.754c-16.681 9.73-34.288 19.924-51.895 19.924-4.633 0-9.267-0.927-13.9-2.317-23.631-7.877-34.288-32.434-44.018-54.212-5.56-12.974-12.047-27.338-18.997-32.434-7.414-5.097-23.167-6.95-37.531-8.34-23.631-2.317-50.505-5.097-64.869-25.021-14.364-19.461-8.804-45.871-3.707-69.039 3.243-14.827 6.487-30.118 3.707-38.458-2.78-7.877-14.364-18.534-24.557-27.801-18.071-16.217-38.458-34.288-38.458-59.309s20.387-43.555 38.458-59.309c10.194-9.267 22.241-19.461 24.557-27.801 2.78-8.804-0.463-24.094-3.707-38.458-5.097-23.167-10.657-49.115 3.707-69.039s41.238-22.704 64.869-25.021c14.364-1.39 30.118-3.243 37.531-8.34 6.95-5.097 13.437-19.924 18.997-32.434 9.73-21.777 20.387-46.798 44.018-54.212 4.17-1.39 8.804-2.317 13.9-2.317 18.071 0 35.214 10.194 51.895 19.924 13.437 7.877 26.874 15.754 36.141 15.754s23.167-7.877 36.141-15.754c16.681-9.73 34.288-19.924 51.895-19.924 4.633 0 9.267 0.927 13.9 2.317 23.631 7.877 34.288 32.434 44.018 54.212 5.56 12.974 12.047 27.338 18.997 32.434s23.167 6.95 37.531 8.34c23.631 2.317 50.505 5.097 64.869 25.021 14.364 19.461 8.804 45.871 3.707 69.039-3.243 14.827-6.487 30.118-3.707 38.458 2.78 7.877 14.364 18.534 24.557 27.801 18.071 16.217 38.458 34.288 38.458 59.309s-20.387 43.091-38.458 59.309zM330.831 523.062c-66.259 0-120.471 53.748-120.471 120.471 0 66.259 53.748 120.471 120.471 120.471 66.259 0 120.471-53.748 120.471-120.471-0.463-66.722-54.212-120.471-120.471-120.471zM443.888 295.095c-7.877-2.78-16.217-3.707-24.557-3.707-27.338 0-50.968 13.437-69.966 24.557-5.56 3.243-13.437 7.877-18.534 10.194-5.097-2.317-13.437-6.95-18.534-10.194-18.997-11.12-42.165-24.557-69.966-24.557v0c-8.34 0-16.681 1.39-24.557 3.707-23.167 7.414-37.995 23.167-48.652 40.311v-380.872c0-7.414 4.633-14.364 11.584-17.607s14.827-1.853 20.387 3.243l129.738 119.544 129.738-119.544c3.707-3.243 8.34-5.097 12.974-5.097 2.78 0 5.097 0.463 7.414 1.39 6.95 3.243 11.584 9.73 11.584 17.607v380.872c-10.657-16.217-25.948-32.434-48.652-39.848z" />
<glyph unicode="&#xe908;" glyph-name="poubelle" horiz-adv-x="939" d="M932.955 783.025c-4.092 4.092-9.207 6.138-15.345 6.138h-206.641l-46.034 111.504c-6.138 16.368-18.414 30.689-35.804 41.942s-34.781 17.391-53.195 17.391h-212.779c-17.391 0-35.804-6.138-52.172-17.391-17.391-11.253-29.666-25.574-35.804-41.942l-47.057-111.504h-206.641c-6.138 0-11.253-2.046-15.345-6.138s-6.138-9.207-6.138-15.345v-42.965c0-6.138 2.046-11.253 6.138-15.345 4.092-3.069 9.207-5.115 15.345-5.115h64.448v-635.269c0-36.827 10.23-68.539 31.712-94.114 20.46-25.574 46.034-38.873 75.7-38.873h553.431c29.666 0 54.218 13.299 75.7 39.896 20.46 26.597 31.712 59.333 31.712 96.16v632.2h64.448c6.138 0 11.253 2.046 15.345 6.138s6.138 9.207 6.138 15.345v42.965c-1.023 5.115-3.069 10.23-7.161 14.322zM352.927 866.909c3.069 4.092 7.161 6.138 11.253 7.161h211.756c4.092-1.023 8.184-3.069 11.253-7.161l31.712-77.746h-298.709l32.735 77.746zM341.674 170.262c0-6.138-2.046-11.253-6.138-15.345s-9.207-6.138-15.345-6.138h-42.965c-6.138 0-11.253 2.046-15.345 6.138s-6.138 9.207-6.138 15.345v384.639c0 6.138 2.046 11.253 6.138 15.345s9.207 6.138 15.345 6.138h42.965c6.138 0 11.253-2.046 15.345-6.138s6.138-9.207 6.138-15.345v-384.639zM512.511 170.262c0-6.138-2.046-11.253-6.138-15.345s-9.207-6.138-15.345-6.138h-42.965c-6.138 0-11.253 2.046-15.345 6.138s-6.138 9.207-6.138 15.345v384.639c0 6.138 2.046 11.253 6.138 15.345s9.207 6.138 15.345 6.138h42.965c6.138 0 11.253-2.046 15.345-6.138s6.138-9.207 6.138-15.345v-384.639zM682.326 170.262c0-6.138-2.046-11.253-6.138-15.345s-9.207-6.138-15.345-6.138h-42.965c-6.138 0-11.253 2.046-15.345 6.138s-6.138 9.207-6.138 15.345v384.639c0 6.138 2.046 11.253 6.138 15.345s9.207 6.138 15.345 6.138h42.965c6.138 0 11.253-2.046 15.345-6.138s6.138-9.207 6.138-15.345v-384.639z" />
<glyph unicode="&#xe909;" glyph-name="promotion" d="M595.518 571.461l-90.78-167.035-10.894-18.156-10.894-21.787-43.574-79.887h29.050l65.362 119.83 90.78 167.035zM508.369 498.837c0 18.156-7.262 36.312-21.787 50.837s-29.050 21.787-50.837 21.787c-18.156 0-36.312-7.262-50.837-21.787s-21.787-29.050-21.787-50.837c0-18.156 7.262-36.312 21.787-50.837s29.050-21.787 50.837-21.787c18.156 0 36.312 7.262 50.837 21.787s21.787 32.681 21.787 50.837zM461.163 477.050c-7.262-7.262-14.525-7.262-21.787-7.262s-14.525 3.631-21.787 7.262c-7.262 7.262-7.262 14.525-7.262 21.787s3.631 14.525 7.262 21.787c7.262 7.262 14.525 7.262 21.787 7.262s14.525-3.631 21.787-7.262c7.262-7.262 7.262-14.525 7.262-21.787s-3.631-14.525-7.262-21.787zM1009.475 477.050l-508.369 453.901c-18.156 18.156-54.468 29.050-79.887 29.050l-366.752-7.262c-25.418 0-47.206-21.787-47.206-47.206l-7.262-366.752c0-25.418 10.894-61.73 29.050-79.887l453.901-508.369c18.156-18.156 43.574-18.156 61.73-3.631l468.426 468.426c18.156 18.156 18.156 47.206-3.631 61.73zM152.511 709.447c-25.418 29.050-25.418 68.993 0 98.043 25.418 25.418 68.993 25.418 98.043 0 25.418-25.418 25.418-68.993 0-94.411-29.050-29.050-72.624-29.050-98.043-3.631zM769.816 364.482v-72.624l-65.362-36.312-36.312-65.362h-72.624l-65.362-36.312-65.362 36.312h-72.624l-36.312 65.362-65.362 36.312v72.624l-21.787 43.574-14.525 21.787 36.312 65.362v72.624l65.362 36.312 36.312 65.362h72.624l65.362 36.312 65.362-36.312h72.624l36.312-65.362 3.631-3.631 39.943-21.787 18.156-10.894v-72.624l36.312-65.362-32.681-65.362zM689.929 386.27c-3.631 7.262-7.262 10.894-10.894 18.156 0 0 0 3.631-3.631 3.631-14.525 14.525-29.050 21.787-50.837 21.787-18.156 0-36.312-7.262-50.837-21.787 0 0-3.631-3.631-3.631-3.631-7.262-7.262-10.894-14.525-14.525-18.156-3.631-7.262-3.631-14.525-3.631-21.787 0-3.631 0-3.631 0-7.262 0-18.156 7.262-36.312 21.787-50.837s32.681-21.787 50.837-21.787c18.156 0 36.312 7.262 50.837 21.787s21.787 32.681 21.787 50.837c0 3.631 0 7.262 0 10.894-3.631 7.262-3.631 14.525-7.262 18.156zM646.355 335.433c-7.262-7.262-14.525-7.262-21.787-7.262s-14.525 3.631-21.787 7.262c-7.262 7.262-7.262 14.525-7.262 21.787 0 3.631 0 3.631 0 7.262 0 7.262 3.631 10.894 7.262 14.525s3.631 3.631 7.262 3.631c3.631 3.631 7.262 3.631 14.525 3.631 3.631 0 10.894 0 14.525-3.631 3.631 0 3.631-3.631 7.262-3.631 3.631-3.631 7.262-10.894 7.262-14.525s0-3.631 0-7.262c3.631-7.262 0-14.525-7.262-21.787z" />
<glyph unicode="&#xe90a;" glyph-name="reseaux-sociaux" horiz-adv-x="1036" d="M795.106 951.969c-92.361-24.094-148.58-112.439-136.533-208.816l-293.145-80.314c-36.141 92.361-132.518 140.549-224.878 116.455-100.392-28.11-160.627-132.518-132.518-232.91s132.518-160.627 232.91-132.518c24.094 8.031 48.188 16.063 64.251 32.125l208.816-208.816c-32.125-44.173-44.173-104.408-32.125-160.627 28.11-100.392 132.518-160.627 232.91-132.518s160.627 132.518 132.518 232.91c-16.063 56.22-56.22 100.392-104.408 124.486l76.298 285.114c24.094-4.016 48.188 0 72.282 4.016 100.392 28.11 160.627 132.518 132.518 232.91-24.094 96.376-128.502 156.612-228.894 128.502zM216.847 498.196c-52.204-12.047-104.408 16.063-120.471 68.267s16.063 104.408 68.267 120.471c44.173 12.047 88.345-8.031 108.424-44.173 4.016-8.031 8.031-16.063 12.047-24.094s4.016-16.063 4.016-24.094-4.016-32.125-12.047-48.188c-8.031-16.063-20.078-28.11-36.141-36.141-8.031-4.016-16.063-8.031-24.094-12.047zM762.98 152.847c12.047-52.204-16.063-104.408-68.267-120.471-52.204-12.047-104.408 16.063-120.471 68.267-8.031 24.094-4.016 48.188 8.031 68.267 8.031 16.063 20.078 28.11 32.125 40.157 8.031 4.016 16.063 12.047 28.11 12.047 12.047 4.016 20.078 4.016 32.125 4.016 16.063 0 36.141-8.031 48.188-16.063 16.063-16.063 32.125-32.125 40.157-56.22zM694.714 313.475c-24.094 4.016-52.204 4.016-80.314-4.016s-48.188-20.078-68.267-36.141l-208.816 208.816c28.11 40.157 44.173 88.345 36.141 136.533l293.145 80.314c20.078-48.188 56.22-80.314 100.392-100.392l-72.282-285.114zM871.404 674.886c-8.031-4.016-16.063-4.016-24.094-4.016-16.063 0-36.141 4.016-48.188 12.047-16.063 8.031-28.11 20.078-36.141 36.141-4.016 8.031-8.031 16.063-12.047 24.094s-4.016 16.063-4.016 24.094c0 44.173 28.11 84.329 72.282 96.376 52.204 12.047 104.408-16.063 120.471-68.267s-16.063-104.408-68.267-120.471z" />
<glyph unicode="&#xe90b;" glyph-name="seo" horiz-adv-x="1013" d="M665.033 260.959c-7.557 0-15.114 7.557-15.114 15.114s7.557 15.114 15.114 15.114c177.594 0 321.181 143.587 321.181 321.181s-143.587 321.181-321.181 321.181c-177.594 0-321.181-143.587-321.181-321.181 0-7.557-7.557-15.114-15.114-15.114s-15.114 7.557-15.114 15.114c0 192.708 158.701 351.41 351.41 351.41s351.41-158.701 351.41-351.41c-3.779-196.487-158.701-351.41-351.41-351.41zM665.033 264.738c-7.557 0-15.114 7.557-15.114 15.114s7.557 15.114 15.114 15.114c71.793 0 136.030 143.587 136.030 313.624s-60.458 313.624-136.030 313.624-136.030-139.808-136.030-313.624c0-7.557-7.557-15.114-15.114-15.114s-15.114 7.557-15.114 15.114c0 192.708 71.793 343.852 166.258 343.852s166.258-151.144 166.258-343.852c-3.779-192.708-75.572-343.852-166.258-343.852zM967.321 714.391h-608.354c-7.557 0-15.114 7.557-15.114 15.114s7.557 15.114 15.114 15.114h608.354c7.557 0 15.114-7.557 15.114-15.114s-7.557-15.114-15.114-15.114zM967.321 476.339h-321.181c-7.557 0-15.114 7.557-15.114 15.114s7.557 15.114 15.114 15.114h321.181c7.557 0 15.114-7.557 15.114-15.114s-7.557-15.114-15.114-15.114zM249.387 162.716c-3.779 0-7.557 0-11.336 3.779-7.557 7.557-7.557 15.114 0 18.893l49.122 49.122c7.557 7.557 15.114 7.557 18.893 0 7.557-7.557 7.557-15.114 0-18.893l-49.122-49.122c0-3.779-3.779-3.779-7.557-3.779zM411.867 589.697c-120.915 0-219.159-98.244-219.159-219.159s98.244-219.159 219.159-219.159c120.915 0 219.159 98.244 219.159 219.159 0 124.694-98.244 219.159-219.159 219.159zM540.339 294.967c-18.893-45.343-60.458-75.572-113.358-79.351-3.779 0-7.557 0-11.336 0-7.557 0-18.893 0-26.45 3.779-7.557 0-11.336 7.557-11.336 18.893 0 7.557 7.557 11.336 18.893 11.336 11.336-3.779 18.893-3.779 30.229 0 37.786 3.779 71.793 26.45 86.908 64.236 3.779 7.557 11.336 11.336 18.893 7.557 7.557-11.336 11.336-18.893 7.557-26.45zM7.557-41.328c-7.557 7.557-7.557 22.672 0 30.229l215.38 215.38 52.9-52.9-215.38-215.38z" />
<glyph unicode="&#xe90c;" glyph-name="statistiques" horiz-adv-x="1113" d="M1084.952-3.048h-1024v934.603c0 16.254-16.254 28.444-32.508 28.444s-28.444-12.19-28.444-28.444v-963.048c0-16.254 12.19-28.444 28.444-28.444h1052.444c16.254 0 28.444 12.19 28.444 28.444 4.063 12.19-8.127 28.444-24.381 28.444v0zM85.333 74.159c0 0 0-4.063 0 0-4.063-4.063 0-4.063 0-4.063h48.762c0-8.127 4.063-12.19 12.19-12.19h186.921c8.127 0 12.19 4.063 12.19 12.19h109.714c0-8.127 4.063-12.19 12.19-12.19h186.921c8.127 0 12.19 4.063 12.19 12.19h109.714c0-8.127 4.063-12.19 12.19-12.19h186.921c8.127 0 12.19 4.063 12.19 12.19h24.381c0 0 4.063 0 4.063 4.063 0 0 0 4.063-4.063 4.063h-24.381v170.667h24.381c0 0 4.063 0 4.063 4.063 0 0 0 4.063-4.063 4.063h-24.381v170.667h24.381c0 0 4.063 0 4.063 4.063 0 0 0 4.063-4.063 4.063h-24.381v93.46c0 8.127-4.063 12.19-12.19 12.19h-186.921c-8.127 0-12.19-4.063-12.19-12.19v-93.46h-109.714v162.54h349.46c0 0 4.063 0 4.063 4.063 0 0 0 4.063-4.063 4.063h-349.46v170.667h349.46c0 0 4.063 0 4.063 4.063 0 0 0 4.063-4.063 4.063h-349.46v65.016c0 8.127-4.063 12.19-12.19 12.19h-186.921c-8.127 0-12.19-4.063-12.19-12.19v-65.016h-369.778c0 0-4.063 0-4.063-4.063 0 0 0-4.063 4.063-4.063h373.841v-170.667h-373.841c0 0-4.063 0-4.063-4.063 0 0 0-4.063 4.063-4.063h373.841v-170.667h-109.714v93.46c0 8.127-4.063 12.19-12.19 12.19h-190.984c-8.127 0-12.19-4.063-12.19-12.19v-93.46h-48.762c0 0-4.063 0-4.063-4.063 0 0 0-4.063 4.063-4.063h48.762v-170.667h-48.762c0 0-4.063 0-4.063-4.063 0 0 0-4.063 4.063-4.063h48.762v-170.667h-48.762zM784.254 74.159h-109.714v170.667h109.714v-170.667zM784.254 423.619v-170.667h-109.714v170.667h109.714zM349.46 423.619h109.714v-170.667h-109.714v170.667zM349.46 244.825h109.714v-170.667h-109.714v170.667z" />
<glyph unicode="&#xe90d;" glyph-name="store" horiz-adv-x="1109" d="M962.248 960h-810.576l-151.672-237.258v-151.022c0-51.568 23.401-97.72 60.019-128.488v-507.233h245.925v319.594h178.106v-319.594h565.518v507.017c36.618 30.768 60.019 76.919 60.019 128.488v150.805l-147.338 237.691zM593.469 609.205v273.009h108.554l71.719-186.339v-124.371c0-14.3-3.467-27.951-9.317-39.868-14.734-29.684-45.501-50.268-80.819-50.268s-66.085 20.584-80.819 50.268c-6.067 12.134-9.317 25.567-9.317 39.868v37.701zM335.628 609.205v86.669l71.719 186.339h108.554v-310.71c0-14.3-3.467-27.951-9.317-39.868-14.734-29.684-45.501-50.268-80.819-50.268s-66.085 20.584-80.819 50.268c-6.067 12.134-9.317 25.567-9.317 39.868v37.701zM77.569 571.504v128.488l116.57 182.439h130.004l-66.302-172.039v-138.671c0-14.3-3.467-27.951-9.317-39.868-14.734-29.684-45.501-50.268-80.819-50.268-10.617 0-20.801 1.95-30.118 5.2-34.884 12.35-60.019 45.718-60.019 84.719zM971.782 13.569h-410.163v319.594h-333.461v-319.594h-90.57v393.046c9.75-1.733 19.934-2.817 30.118-2.817 51.785 0 98.153 23.617 128.921 60.669 30.768-37.051 77.136-60.669 128.921-60.669s98.153 23.617 128.921 60.669c30.768-37.051 77.136-60.669 128.921-60.669s98.153 23.617 128.921 60.669c30.768-37.051 77.136-60.669 128.921-60.669 10.4 0 20.367 0.867 30.118 2.817v-393.046zM1031.8 609.205v-37.701c0-39.218-25.134-72.586-60.019-84.936-9.534-3.467-19.501-5.2-30.118-5.2-35.318 0-66.085 20.584-80.819 50.268-6.067 12.134-9.317 25.567-9.317 39.868v138.671l-66.302 172.039h133.688l112.67-182.006v-91.003z" />
<glyph unicode="&#xe90e;" glyph-name="telechargement" horiz-adv-x="842" d="M842.44 599.3h-239.66v360.7h-360.7v-360.7h-239.66l421.22-421.22 418.799 421.22zM0 57.040v-121.040h842.44v121.040h-842.44z" />
<glyph unicode="&#xe90f;" glyph-name="transport" horiz-adv-x="1862" d="M1606.742 343.849v15.238l-116.86 381.056c-5.076 20.327-25.402 35.565-50.804 35.565h-243.871v60.967h-680.818v-218.467h-147.336l-60.967-81.295h208.307v-60.967h-233.717l-60.967-81.295h294.687v-50.804h-35.565v-137.181h30.486v-20.327h20.327c10.164-71.131 76.204-127.024 152.426-127.024s142.262 55.893 152.426 127.024h350.564c10.164-71.131 76.204-127.024 152.426-127.024s142.262 55.893 152.426 127.024h106.696v20.327h45.729v137.181h-35.565zM687.129 125.373c-45.729 0-81.295 35.565-81.295 81.295s35.565 81.295 81.295 81.295c45.729 0 81.295-35.565 81.295-81.295s-35.565-81.295-81.295-81.295v0zM1342.538 125.373c-45.729 0-81.295 35.565-81.295 81.295s35.565 81.295 81.295 81.295c45.729 0 81.295-35.565 81.295-81.295s-35.565-81.295-81.295-81.295v0zM1190.122 516.587v187.991h193.065c25.402 0 45.729-15.238 50.804-35.565l45.729-147.336h-289.598z" />
<glyph unicode="&#xe910;" glyph-name="widget" horiz-adv-x="1551" d="M1194.556 719.662c-111.71 96.483-258.973 152.338-416.386 152.338-355.443 0-644.883-289.438-644.883-644.883 0-10.151 0-96.483 0-106.634v-96.483h1279.614v96.483c0 10.151 0 96.483 0 106.634 5.076 314.828-218.345 492.557-218.345 492.557v0zM234.846 84.931c0 5.076 0 101.559 0 106.634h147.259v45.704h-137.1c0 0-10.151 0-10.151 0 5.076 126.948 50.779 248.81 137.1 345.293l5.076 5.076 10.151-5.076 96.483-96.483 30.465 30.465-101.559 101.559c96.483 86.321 213.269 137.1 340.217 142.176h5.076c0 0 5.076 0 5.076 0v-147.262h40.623v147.262c20.314 0 40.623-5.076 55.855-5.076 111.71-15.236 213.269-60.931 294.514-137.1l-101.559-101.559 30.465-30.465 106.634 106.634 5.076-5.076c86.321-96.483 137.1-213.269 142.176-340.217h-147.259v-45.704h147.259c0 0 0-101.559 0-106.634l-1101.895-10.151zM960.975 465.776c0 0-233.583-71.093-279.285-116.787s-45.704-116.787 0-162.49c45.704-45.704 116.787-45.704 162.49 0s116.784 279.285 116.784 279.285v0z" />
<glyph unicode="&#xf002;" glyph-name="search" horiz-adv-x="951" d="M658.286 475.428q0 105.714-75.143 180.857t-180.857 75.143-180.857-75.143-75.143-180.857 75.143-180.857 180.857-75.143 180.857 75.143 75.143 180.857zM950.857 0q0-29.714-21.714-51.429t-51.429-21.714q-30.857 0-51.429 21.714l-196 195.429q-102.286-70.857-228-70.857-81.714 0-156.286 31.714t-128.571 85.714-85.714 128.571-31.714 156.286 31.714 156.286 85.714 128.571 128.571 85.714 156.286 31.714 156.286-31.714 128.571-85.714 85.714-128.571 31.714-156.286q0-125.714-70.857-228l196-196q21.143-21.143 21.143-51.429z" />
<glyph unicode="&#xf004;" glyph-name="heart" d="M512 0q-14.857 0-25.143 10.286l-356.571 344q-5.714 4.571-15.714 14.857t-31.714 37.429-38.857 55.714-30.571 69.143-13.429 78.857q0 125.714 72.571 196.571t200.571 70.857q35.429 0 72.286-12.286t68.571-33.143 54.571-39.143 43.429-38.857q20.571 20.571 43.429 38.857t54.571 39.143 68.571 33.143 72.286 12.286q128 0 200.571-70.857t72.571-196.571q0-126.286-130.857-257.143l-356-342.857q-10.286-10.286-25.143-10.286z" />
<glyph unicode="&#xf005;" glyph-name="star" horiz-adv-x="951" d="M950.857 581.143q0-12.571-14.857-27.429l-207.429-202.286 49.143-285.714q0.571-4 0.571-11.429 0-12-6-20.286t-17.429-8.286q-10.857 0-22.857 6.857l-256.571 134.857-256.571-134.857q-12.571-6.857-22.857-6.857-12 0-18 8.286t-6 20.286q0 3.429 1.143 11.429l49.143 285.714-208 202.286q-14.286 15.429-14.286 27.429 0 21.143 32 26.286l286.857 41.714 128.571 260q10.857 23.429 28 23.429t28-23.429l128.571-260 286.857-41.714q32-5.143 32-26.286z" />
<glyph unicode="&#xf006;" glyph-name="star-o" horiz-adv-x="951" d="M649.714 377.143l174.857 169.714-241.143 35.429-108 218.286-108-218.286-241.143-35.429 174.857-169.714-41.714-240.571 216 113.714 215.429-113.714zM950.857 581.143q0-12.571-14.857-27.429l-207.429-202.286 49.143-285.714q0.571-4 0.571-11.429 0-28.571-23.429-28.571-10.857 0-22.857 6.857l-256.571 134.857-256.571-134.857q-12.571-6.857-22.857-6.857-12 0-18 8.286t-6 20.286q0 3.429 1.143 11.429l49.143 285.714-208 202.286q-14.286 15.429-14.286 27.429 0 21.143 32 26.286l286.857 41.714 128.571 260q10.857 23.429 28 23.429t28-23.429l128.571-260 286.857-41.714q32-5.143 32-26.286z" />
<glyph unicode="&#xf00c;" glyph-name="check" d="M954.857 627.428q0-22.857-16-38.857l-491.429-491.429q-16-16-38.857-16t-38.857 16l-284.571 284.571q-16 16-16 38.857t16 38.857l77.714 77.714q16 16 38.857 16t38.857-16l168-168.571 374.857 375.429q16 16 38.857 16t38.857-16l77.714-77.714q16-16 16-38.857z" />
<glyph unicode="&#xf00d;" glyph-name="close, remove, times" horiz-adv-x="805" d="M741.714 195.428q0-22.857-16-38.857l-77.714-77.714q-16-16-38.857-16t-38.857 16l-168 168-168-168q-16-16-38.857-16t-38.857 16l-77.714 77.714q-16 16-16 38.857t16 38.857l168 168-168 168q-16 16-16 38.857t16 38.857l77.714 77.714q16 16 38.857 16t38.857-16l168-168 168 168q16 16 38.857 16t38.857-16l77.714-77.714q16-16 16-38.857t-16-38.857l-168-168 168-168q16-16 16-38.857z" />
<glyph unicode="&#xf013;" glyph-name="cog, gear" horiz-adv-x="878" d="M585.143 438.857q0 60.571-42.857 103.429t-103.429 42.857-103.429-42.857-42.857-103.429 42.857-103.429 103.429-42.857 103.429 42.857 42.857 103.429zM877.714 501.143v-126.857q0-6.857-4.571-13.143t-11.429-7.429l-105.714-16q-10.857-30.857-22.286-52 20-28.571 61.143-78.857 5.714-6.857 5.714-14.286t-5.143-13.143q-15.429-21.143-56.571-61.714t-53.714-40.571q-6.857 0-14.857 5.143l-78.857 61.714q-25.143-13.143-52-21.714-9.143-77.714-16.571-106.286-4-16-20.571-16h-126.857q-8 0-14 4.857t-6.571 12.286l-16 105.143q-28 9.143-51.429 21.143l-80.571-61.143q-5.714-5.143-14.286-5.143-8 0-14.286 6.286-72 65.143-94.286 96-4 5.714-4 13.143 0 6.857 4.571 13.143 8.571 12 29.143 38t30.857 40.286q-15.429 28.571-23.429 56.571l-104.571 15.429q-7.429 1.143-12 7.143t-4.571 13.429v126.857q0 6.857 4.571 13.143t10.857 7.429l106.286 16q8 26.286 22.286 52.571-22.857 32.571-61.143 78.857-5.714 6.857-5.714 13.714 0 5.714 5.143 13.143 14.857 20.571 56.286 61.429t54 40.857q7.429 0 14.857-5.714l78.857-61.143q25.143 13.143 52 21.714 9.143 77.714 16.571 106.286 4 16 20.571 16h126.857q8 0 14-4.857t6.571-12.286l16-105.143q28-9.143 51.429-21.143l81.143 61.143q5.143 5.143 13.714 5.143 7.429 0 14.286-5.714 73.714-68 94.286-97.143 4-4.571 4-12.571 0-6.857-4.571-13.143-8.571-12-29.143-38t-30.857-40.286q14.857-28.571 23.429-56l104.571-16q7.429-1.143 12-7.143t4.571-13.429z" />
<glyph unicode="&#xf01e;" glyph-name="repeat, rotate-right" horiz-adv-x="878" d="M877.714 804.571v-256q0-14.857-10.857-25.714t-25.714-10.857h-256q-24 0-33.714 22.857-9.714 22.286 8 39.429l78.857 78.857q-84.571 78.286-199.429 78.286-59.429 0-113.429-23.143t-93.429-62.571-62.571-93.429-23.143-113.429 23.143-113.429 62.571-93.429 93.429-62.571 113.429-23.143q68 0 128.571 29.714t102.286 84q4 5.714 13.143 6.857 8 0 14.286-5.143l78.286-78.857q5.143-4.571 5.429-11.714t-4.286-12.857q-62.286-75.429-150.857-116.857t-186.857-41.429q-89.143 0-170.286 34.857t-140 93.714-93.714 140-34.857 170.286 34.857 170.286 93.714 140 140 93.714 170.286 34.857q84 0 162.571-31.714t139.714-89.429l74.286 73.714q16.571 17.714 40 8 22.286-9.714 22.286-33.714z" />
<glyph unicode="&#xf03a;" glyph-name="list" d="M146.286 201.143v-109.714q0-7.429-5.429-12.857t-12.857-5.429h-109.714q-7.429 0-12.857 5.429t-5.429 12.857v109.714q0 7.429 5.429 12.857t12.857 5.429h109.714q7.429 0 12.857-5.429t5.429-12.857zM146.286 420.571v-109.714q0-7.429-5.429-12.857t-12.857-5.429h-109.714q-7.429 0-12.857 5.429t-5.429 12.857v109.714q0 7.429 5.429 12.857t12.857 5.429h109.714q7.429 0 12.857-5.429t5.429-12.857zM146.286 640v-109.714q0-7.429-5.429-12.857t-12.857-5.429h-109.714q-7.429 0-12.857 5.429t-5.429 12.857v109.714q0 7.429 5.429 12.857t12.857 5.429h109.714q7.429 0 12.857-5.429t5.429-12.857zM1024 201.143v-109.714q0-7.429-5.429-12.857t-12.857-5.429h-768q-7.429 0-12.857 5.429t-5.429 12.857v109.714q0 7.429 5.429 12.857t12.857 5.429h768q7.429 0 12.857-5.429t5.429-12.857zM146.286 859.428v-109.714q0-7.429-5.429-12.857t-12.857-5.429h-109.714q-7.429 0-12.857 5.429t-5.429 12.857v109.714q0 7.429 5.429 12.857t12.857 5.429h109.714q7.429 0 12.857-5.429t5.429-12.857zM1024 420.571v-109.714q0-7.429-5.429-12.857t-12.857-5.429h-768q-7.429 0-12.857 5.429t-5.429 12.857v109.714q0 7.429 5.429 12.857t12.857 5.429h768q7.429 0 12.857-5.429t5.429-12.857zM1024 640v-109.714q0-7.429-5.429-12.857t-12.857-5.429h-768q-7.429 0-12.857 5.429t-5.429 12.857v109.714q0 7.429 5.429 12.857t12.857 5.429h768q7.429 0 12.857-5.429t5.429-12.857zM1024 859.428v-109.714q0-7.429-5.429-12.857t-12.857-5.429h-768q-7.429 0-12.857 5.429t-5.429 12.857v109.714q0 7.429 5.429 12.857t12.857 5.429h768q7.429 0 12.857-5.429t5.429-12.857z" />
<glyph unicode="&#xf059;" glyph-name="question-circle" horiz-adv-x="878" d="M512 164.571v109.714q0 8-5.143 13.143t-13.143 5.143h-109.714q-8 0-13.143-5.143t-5.143-13.143v-109.714q0-8 5.143-13.143t13.143-5.143h109.714q8 0 13.143 5.143t5.143 13.143zM658.286 548.571q0 50.286-31.714 93.143t-79.143 66.286-97.143 23.429q-138.857 0-212-121.714-8.571-13.714 4.571-24l75.429-57.143q4-3.429 10.857-3.429 9.143 0 14.286 6.857 30.286 38.857 49.143 52.571 19.429 13.714 49.143 13.714 27.429 0 48.857-14.857t21.429-33.714q0-21.714-11.429-34.857t-38.857-25.714q-36-16-66-49.429t-30-71.714v-20.571q0-8 5.143-13.143t13.143-5.143h109.714q8 0 13.143 5.143t5.143 13.143q0 10.857 12.286 28.286t31.143 28.286q18.286 10.286 28 16.286t26.286 20 25.429 27.429 16 34.571 7.143 46.286zM877.714 438.857q0-119.429-58.857-220.286t-159.714-159.714-220.286-58.857-220.286 58.857-159.714 159.714-58.857 220.286 58.857 220.286 159.714 159.714 220.286 58.857 220.286-58.857 159.714-159.714 58.857-220.286z" />
<glyph unicode="&#xf085;" glyph-name="cogs, gears" horiz-adv-x="1097" d="M512 438.857q0 60.571-42.857 103.429t-103.429 42.857-103.429-42.857-42.857-103.429 42.857-103.429 103.429-42.857 103.429 42.857 42.857 103.429zM950.857 146.286q0 29.714-21.714 51.429t-51.429 21.714-51.429-21.714-21.714-51.429q0-30.286 21.429-51.714t51.714-21.429 51.714 21.429 21.429 51.714zM950.857 731.428q0 29.714-21.714 51.429t-51.429 21.714-51.429-21.714-21.714-51.429q0-30.286 21.429-51.714t51.714-21.429 51.714 21.429 21.429 51.714zM731.429 490.857v-105.714q0-5.714-4-11.143t-9.143-6l-88.571-13.714q-6.286-20-18.286-43.429 19.429-27.429 51.429-65.714 4-5.714 4-11.429 0-6.857-4-10.857-13.143-17.143-47.143-51.143t-44.857-34q-6.286 0-12 4l-65.714 51.429q-21.143-10.857-44-17.714-6.286-61.714-13.143-88.571-4-13.714-17.143-13.714h-106.286q-6.286 0-11.429 4.286t-5.714 10l-13.143 87.429q-19.429 5.714-42.857 17.714l-67.429-50.857q-4-4-11.429-4-6.286 0-12 4.571-82.286 76-82.286 91.429 0 5.143 4 10.857 5.714 8 23.429 30.286t26.857 34.857q-13.143 25.143-20 46.857l-86.857 13.714q-5.714 0.571-9.714 5.429t-4 11.143v105.714q0 5.714 4 11.143t9.143 6l88.571 13.714q6.286 20 18.286 43.429-19.429 27.429-51.429 65.714-4 6.286-4 11.429 0 6.857 4 11.429 12.571 17.143 46.857 50.857t45.143 33.714q6.286 0 12-4l65.714-51.429q19.429 10.286 44 18.286 6.286 61.714 13.143 88 4 13.714 17.143 13.714h106.286q6.286 0 11.429-4.286t5.714-10l13.143-87.429q19.429-5.714 42.857-17.714l67.429 50.857q4.571 4 11.429 4 6.286 0 12-4.571 82.286-76 82.286-91.429 0-5.143-4-10.857-6.857-9.143-24-30.857t-25.714-34.286q13.143-27.429 19.429-46.857l86.857-13.143q5.714-1.143 9.714-6t4-11.143zM1097.143 186.286v-80q0-9.143-85.143-17.714-6.857-15.429-17.143-29.714 29.143-64.571 29.143-78.857 0-2.286-2.286-4-69.714-40.571-70.857-40.571-4.571 0-26.286 26.857t-29.714 38.857q-11.429-1.143-17.143-1.143t-17.143 1.143q-8-12-29.714-38.857t-26.286-26.857q-1.143 0-70.857 40.571-2.286 1.714-2.286 4 0 14.286 29.143 78.857-10.286 14.286-17.143 29.714-85.143 8.571-85.143 17.714v80q0 9.143 85.143 17.714 7.429 16.571 17.143 29.714-29.143 64.571-29.143 78.857 0 2.286 2.286 4 2.286 1.143 20 11.429t33.714 19.429 17.143 9.143q4.571 0 26.286-26.571t29.714-38.571q11.429 1.143 17.143 1.143t17.143-1.143q29.143 40.571 52.571 64l3.429 1.143q2.286 0 70.857-40 2.286-1.714 2.286-4 0-14.286-29.143-78.857 9.714-13.143 17.143-29.714 85.143-8.571 85.143-17.714zM1097.143 771.428v-80q0-9.143-85.143-17.714-6.857-15.429-17.143-29.714 29.143-64.571 29.143-78.857 0-2.286-2.286-4-69.714-40.571-70.857-40.571-4.571 0-26.286 26.857t-29.714 38.857q-11.429-1.143-17.143-1.143t-17.143 1.143q-8-12-29.714-38.857t-26.286-26.857q-1.143 0-70.857 40.571-2.286 1.714-2.286 4 0 14.286 29.143 78.857-10.286 14.286-17.143 29.714-85.143 8.571-85.143 17.714v80q0 9.143 85.143 17.714 7.429 16.571 17.143 29.714-29.143 64.571-29.143 78.857 0 2.286 2.286 4 2.286 1.143 20 11.429t33.714 19.429 17.143 9.143q4.571 0 26.286-26.571t29.714-38.571q11.429 1.143 17.143 1.143t17.143-1.143q29.143 40.571 52.571 64l3.429 1.143q2.286 0 70.857-40 2.286-1.714 2.286-4 0-14.286-29.143-78.857 9.714-13.143 17.143-29.714 85.143-8.571 85.143-17.714z" />
<glyph unicode="&#xf095;" glyph-name="phone" horiz-adv-x="805" d="M804.571 242.286q0-15.429-5.714-40.286t-12-39.143q-12-28.571-69.714-60.571-53.714-29.143-106.286-29.143-15.429 0-30 2t-32.857 7.143-27.143 8.286-31.714 11.714-28 10.286q-56 20-100 47.429-73.143 45.143-151.143 123.143t-123.143 151.143q-27.429 44-47.429 100-1.714 5.143-10.286 28t-11.714 31.714-8.286 27.143-7.143 32.857-2 30q0 52.571 29.143 106.286 32 57.714 60.571 69.714 14.286 6.286 39.143 12t40.286 5.714q8 0 12-1.714 10.286-3.429 30.286-43.429 6.286-10.857 17.143-30.857t20-36.286 17.714-30.571q1.714-2.286 10-14.286t12.286-20.286 4-16.286q0-11.429-16.286-28.571t-35.429-31.429-35.429-30.286-16.286-26.286q0-5.143 2.857-12.857t4.857-11.714 8-13.714 6.571-10.857q43.429-78.286 99.429-134.286t134.286-99.429q1.143-0.571 10.857-6.571t13.714-8 11.714-4.857 12.857-2.857q10.286 0 26.286 16.286t30.286 35.429 31.429 35.429 28.571 16.286q8 0 16.286-4t20.286-12.286 14.286-10q14.286-8.571 30.571-17.714t36.286-20 30.857-17.143q40-20 43.429-30.286 1.714-4 1.714-12z" />
<glyph unicode="&#xf099;" glyph-name="twitter" horiz-adv-x="951" d="M925.714 717.714q-38.286-56-92.571-95.429 0.571-8 0.571-24 0-74.286-21.714-148.286t-66-142-105.429-120.286-147.429-83.429-184.571-31.143q-154.857 0-283.429 82.857 20-2.286 44.571-2.286 128.571 0 229.143 78.857-60 1.143-107.429 36.857t-65.143 91.143q18.857-2.857 34.857-2.857 24.571 0 48.571 6.286-64 13.143-106 63.714t-42 117.429v2.286q38.857-21.714 83.429-23.429-37.714 25.143-60 65.714t-22.286 88q0 50.286 25.143 93.143 69.143-85.143 168.286-136.286t212.286-56.857q-4.571 21.714-4.571 42.286 0 76.571 54 130.571t130.571 54q80 0 134.857-58.286 62.286 12 117.143 44.571-21.143-65.714-81.143-101.714 53.143 5.714 106.286 28.571z" />
<glyph unicode="&#xf09a;" glyph-name="facebook, facebook-f" horiz-adv-x="602" d="M548 944v-150.857h-89.714q-49.143 0-66.286-20.571t-17.143-61.714v-108h167.429l-22.286-169.143h-145.143v-433.714h-174.857v433.714h-145.714v169.143h145.714v124.571q0 106.286 59.429 164.857t158.286 58.571q84 0 130.286-6.857z" />
<glyph unicode="&#xf0d7;" glyph-name="caret-down" horiz-adv-x="585" d="M585.143 548.571q0-14.857-10.857-25.714l-256-256q-10.857-10.857-25.714-10.857t-25.714 10.857l-256 256q-10.857 10.857-10.857 25.714t10.857 25.714 25.714 10.857h512q14.857 0 25.714-10.857t10.857-25.714z" />
<glyph unicode="&#xf0d8;" glyph-name="caret-up" horiz-adv-x="585" d="M585.143 256q0-14.857-10.857-25.714t-25.714-10.857h-512q-14.857 0-25.714 10.857t-10.857 25.714 10.857 25.714l256 256q10.857 10.857 25.714 10.857t25.714-10.857l256-256q10.857-10.857 10.857-25.714z" />
<glyph unicode="&#xf0da;" glyph-name="caret-right" horiz-adv-x="329" d="M329.143 438.857q0-14.857-10.857-25.714l-256-256q-10.857-10.857-25.714-10.857t-25.714 10.857-10.857 25.714v512q0 14.857 10.857 25.714t25.714 10.857 25.714-10.857l256-256q10.857-10.857 10.857-25.714z" />
<glyph unicode="&#xf0e0;" glyph-name="envelope" d="M1024 545.143v-453.714q0-37.714-26.857-64.571t-64.571-26.857h-841.143q-37.714 0-64.571 26.857t-26.857 64.571v453.714q25.143-28 57.714-49.714 206.857-140.571 284-197.143 32.571-24 52.857-37.429t54-27.429 62.857-14h1.143q29.143 0 62.857 14t54 27.429 52.857 37.429q97.143 70.286 284.571 197.143 32.571 22.286 57.143 49.714zM1024 713.143q0-45.143-28-86.286t-69.714-70.286q-214.857-149.143-267.429-185.714-5.714-4-24.286-17.429t-30.857-21.714-29.714-18.571-32.857-15.429-28.571-5.143h-1.143q-13.143 0-28.571 5.143t-32.857 15.429-29.714 18.571-30.857 21.714-24.286 17.429q-52 36.571-149.714 104.286t-117.143 81.429q-35.429 24-66.857 66t-31.429 78q0 44.571 23.714 74.286t67.714 29.714h841.143q37.143 0 64.286-26.857t27.143-64.571z" />
<glyph unicode="&#xf123;" glyph-name="star-half-empty, star-half-full, star-half-o" horiz-adv-x="951" d="M677.714 404l146.857 142.857-241.143 35.429-17.143 34.286-90.857 184v-550.286l33.714-17.714 181.714-96-34.286 202.857-6.857 37.714zM936 553.714l-207.429-202.286 49.143-285.714q2.857-18.857-3.429-29.429t-19.429-10.571q-9.714 0-22.857 6.857l-256.571 134.857-256.571-134.857q-13.143-6.857-22.857-6.857-13.143 0-19.429 10.571t-3.429 29.429l49.143 285.714-208 202.286q-18.286 18.286-13.143 34t30.857 19.714l286.857 41.714 128.571 260q11.429 23.429 28 23.429 16 0 28-23.429l128.571-260 286.857-41.714q25.714-4 30.857-19.714t-13.714-34z" />
</font>
</defs>
</svg>
